<svg width="321" height="695" viewBox="0 0 321 695" fill="none" xmlns="http://www.w3.org/2000/svg">
<line x1="163.5" y1="44" x2="163.5" y2="22" stroke="white" stroke-width="3"/>
<line x1="163.5" y1="48" x2="163.5" y2="22" stroke="white" stroke-width="3"/>
<line x1="163.5" y1="99" x2="163.5" y2="72" stroke="white" stroke-width="3"/>
<line x1="163.5" y1="148" x2="163.5" y2="121" stroke="white" stroke-width="3"/>
<line x1="163.5" y1="193" x2="163.5" y2="171" stroke="white" stroke-width="3"/>
<line x1="163.5" y1="248" x2="163.5" y2="221" stroke="white" stroke-width="3"/>
<line x1="163.5" y1="297" x2="163.5" y2="270" stroke="white" stroke-width="3"/>
<line x1="163.5" y1="346" x2="163.5" y2="320" stroke="white" stroke-width="3"/>
<line x1="163.5" y1="342" x2="163.5" y2="320" stroke="white" stroke-width="3"/>
<line x1="163.5" y1="446" x2="163.5" y2="419" stroke="white" stroke-width="3"/>
<line x1="163.5" y1="396" x2="163.5" y2="369" stroke="white" stroke-width="3"/>
<line x1="163.5" y1="546" x2="163.5" y2="519" stroke="white" stroke-width="3"/>
<line x1="163.5" y1="595" x2="163.5" y2="568" stroke="white" stroke-width="3"/>
<circle r="5.5" transform="matrix(1 0 0 -1 5.5 11.5)" fill="white"/>
<circle cx="19.5" cy="11.5" r="2.5" fill="white"/>
<circle cx="26.5" cy="11.5" r="2.5" fill="white"/>
<circle cx="32.5" cy="11.5" r="2.5" fill="white"/>
<circle cx="39.5" cy="11.5" r="2.5" fill="white"/>
<circle cx="46.5" cy="11.5" r="2.5" fill="white"/>
<circle cx="53.5" cy="11.5" r="2.5" fill="white"/>
<circle cx="59.5" cy="11.5" r="2.5" fill="white"/>
<circle cx="66.5" cy="11.5" r="2.5" fill="white"/>
<circle cx="73.5" cy="11.5" r="2.5" fill="white"/>
<circle cx="80.5" cy="11.5" r="2.5" fill="white"/>
<circle cx="87.5" cy="11.5" r="2.5" fill="white"/>
<circle cx="94.5" cy="11.5" r="2.5" fill="white"/>
<circle cx="100.5" cy="11.5" r="2.5" fill="white"/>
<circle cx="107.5" cy="11.5" r="2.5" fill="white"/>
<circle cx="114.5" cy="11.5" r="2.5" fill="white"/>
<circle cx="121.5" cy="11.5" r="2.5" fill="white"/>
<circle cx="127.5" cy="11.5" r="2.5" fill="white"/>
<circle cx="134.5" cy="11.5" r="2.5" fill="white"/>
<circle cx="141.5" cy="11.5" r="2.5" fill="white"/>
<circle r="5.5" transform="matrix(-1 0 0 1 315.5 181.5)" fill="white"/>
<circle cx="301.5" cy="181.5" r="2.5" transform="rotate(180 301.5 181.5)" fill="white"/>
<circle cx="294.5" cy="181.5" r="2.5" transform="rotate(180 294.5 181.5)" fill="white"/>
<circle cx="288.5" cy="181.5" r="2.5" transform="rotate(180 288.5 181.5)" fill="white"/>
<circle cx="281.5" cy="181.5" r="2.5" transform="rotate(180 281.5 181.5)" fill="white"/>
<circle cx="274.5" cy="181.5" r="2.5" transform="rotate(180 274.5 181.5)" fill="white"/>
<circle cx="267.5" cy="181.5" r="2.5" transform="rotate(180 267.5 181.5)" fill="white"/>
<circle cx="261.5" cy="181.5" r="2.5" transform="rotate(180 261.5 181.5)" fill="white"/>
<circle cx="254.5" cy="181.5" r="2.5" transform="rotate(180 254.5 181.5)" fill="white"/>
<circle cx="247.5" cy="181.5" r="2.5" transform="rotate(180 247.5 181.5)" fill="white"/>
<circle cx="240.5" cy="181.5" r="2.5" transform="rotate(180 240.5 181.5)" fill="white"/>
<circle cx="233.5" cy="181.5" r="2.5" transform="rotate(180 233.5 181.5)" fill="white"/>
<circle cx="226.5" cy="181.5" r="2.5" transform="rotate(180 226.5 181.5)" fill="white"/>
<circle cx="220.5" cy="181.5" r="2.5" transform="rotate(180 220.5 181.5)" fill="white"/>
<circle cx="213.5" cy="181.5" r="2.5" transform="rotate(180 213.5 181.5)" fill="white"/>
<circle cx="206.5" cy="181.5" r="2.5" transform="rotate(180 206.5 181.5)" fill="white"/>
<circle cx="199.5" cy="181.5" r="2.5" transform="rotate(180 199.5 181.5)" fill="white"/>
<circle cx="193.5" cy="181.5" r="2.5" transform="rotate(180 193.5 181.5)" fill="white"/>
<circle r="11.5" transform="matrix(-1 0 0 1 164 12)" fill="white" stroke="white"/>
<circle r="11.5" transform="matrix(-1 0 0 1 165 181)" fill="white" stroke="white"/>
<line x1="162.5" y1="646" x2="162.5" y2="620" stroke="white" stroke-width="3"/>
<line x1="162.5" y1="642" x2="162.5" y2="620" stroke="white" stroke-width="3"/>
<circle r="5.5" transform="matrix(-1 0 0 1 315.5 684.5)" fill="white"/>
<circle cx="301.5" cy="684.5" r="2.5" transform="rotate(180 301.5 684.5)" fill="white"/>
<circle cx="294.5" cy="684.5" r="2.5" transform="rotate(180 294.5 684.5)" fill="white"/>
<circle cx="288.5" cy="684.5" r="2.5" transform="rotate(180 288.5 684.5)" fill="white"/>
<circle cx="281.5" cy="684.5" r="2.5" transform="rotate(180 281.5 684.5)" fill="white"/>
<circle cx="274.5" cy="684.5" r="2.5" transform="rotate(180 274.5 684.5)" fill="white"/>
<circle cx="267.5" cy="684.5" r="2.5" transform="rotate(180 267.5 684.5)" fill="white"/>
<circle cx="261.5" cy="684.5" r="2.5" transform="rotate(180 261.5 684.5)" fill="white"/>
<circle cx="254.5" cy="684.5" r="2.5" transform="rotate(180 254.5 684.5)" fill="white"/>
<circle cx="247.5" cy="684.5" r="2.5" transform="rotate(180 247.5 684.5)" fill="white"/>
<circle cx="240.5" cy="684.5" r="2.5" transform="rotate(180 240.5 684.5)" fill="white"/>
<circle cx="233.5" cy="684.5" r="2.5" transform="rotate(180 233.5 684.5)" fill="white"/>
<circle cx="226.5" cy="684.5" r="2.5" transform="rotate(180 226.5 684.5)" fill="white"/>
<circle cx="220.5" cy="684.5" r="2.5" transform="rotate(180 220.5 684.5)" fill="white"/>
<circle cx="213.5" cy="684.5" r="2.5" transform="rotate(180 213.5 684.5)" fill="white"/>
<circle cx="206.5" cy="684.5" r="2.5" transform="rotate(180 206.5 684.5)" fill="white"/>
<circle cx="199.5" cy="684.5" r="2.5" transform="rotate(180 199.5 684.5)" fill="white"/>
<circle cx="193.5" cy="684.5" r="2.5" transform="rotate(180 193.5 684.5)" fill="white"/>
<circle r="5.5" transform="matrix(1 0 0 -1 5.5 483.5)" fill="white"/>
<circle cx="19.5" cy="483.5" r="2.5" fill="white"/>
<circle cx="26.5" cy="483.5" r="2.5" fill="white"/>
<circle cx="32.5" cy="483.5" r="2.5" fill="white"/>
<circle cx="39.5" cy="483.5" r="2.5" fill="white"/>
<circle cx="46.5" cy="483.5" r="2.5" fill="white"/>
<circle cx="53.5" cy="483.5" r="2.5" fill="white"/>
<circle cx="59.5" cy="483.5" r="2.5" fill="white"/>
<circle cx="66.5" cy="483.5" r="2.5" fill="white"/>
<circle cx="73.5" cy="483.5" r="2.5" fill="white"/>
<circle cx="80.5" cy="483.5" r="2.5" fill="white"/>
<circle cx="87.5" cy="483.5" r="2.5" fill="white"/>
<circle cx="94.5" cy="483.5" r="2.5" fill="white"/>
<circle cx="100.5" cy="483.5" r="2.5" fill="white"/>
<circle cx="107.5" cy="483.5" r="2.5" fill="white"/>
<circle cx="114.5" cy="483.5" r="2.5" fill="white"/>
<circle cx="121.5" cy="483.5" r="2.5" fill="white"/>
<circle cx="127.5" cy="483.5" r="2.5" fill="white"/>
<circle cx="134.5" cy="483.5" r="2.5" fill="white"/>
<circle cx="141.5" cy="483.5" r="2.5" fill="white"/>
<circle r="11.5" transform="matrix(-1 0 0 1 161 484)" fill="white" stroke="white"/>
<circle r="11.5" transform="matrix(-1 0 0 1 161 683)" fill="white" stroke="white"/>
</svg>
